<svg xmlns="http://www.w3.org/2000/svg" viewBox="0 0 100 100">
  <defs>
    <linearGradient id="plateGradient" x1="0%" y1="0%" x2="0%" y2="100%">
      <stop offset="0%" style="stop-color:#4CAF50;stop-opacity:1" />
      <stop offset="100%" style="stop-color:#45a049;stop-opacity:1" />
    </linearGradient>
  </defs>

  <!-- Background circle -->
  <circle cx="50" cy="50" r="48" fill="url(#plateGradient)" />

  <!-- Plate -->
  <circle cx="50" cy="55" r="28" fill="white" stroke="#f0f0f0" stroke-width="1.5"/>
  <circle cx="50" cy="55" r="22" fill="none" stroke="#e0e0e0" stroke-width="1"/>

  <!-- Fork (left) -->
  <g transform="translate(28, 35)">
    <rect x="4" y="0" width="2" height="35" fill="white" rx="1"/>
    <rect x="1" y="0" width="1.5" height="15" fill="white" rx="0.5"/>
    <rect x="3.5" y="0" width="1.5" height="15" fill="white" rx="0.5"/>
    <rect x="6" y="0" width="1.5" height="15" fill="white" rx="0.5"/>
  </g>

  <!-- Knife (right) -->
  <g transform="translate(64, 35)">
    <rect x="3" y="0" width="2" height="35" fill="white" rx="1"/>
    <path d="M 3 0 L 5 0 L 6 8 L 2 8 Z" fill="white"/>
  </g>

  <!-- Leaf accent (healthy eating symbol) -->
  <path d="M 50 45 Q 55 40 58 43 Q 60 45 58 47 Q 55 50 50 48 Z" fill="#4CAF50" opacity="0.8"/>
</svg>
